<?xml version="1.0" encoding="UTF-8" standalone="no"?>
<svg width="24px" height="29px" viewBox="0 0 24 29" version="1.1" xmlns="http://www.w3.org/2000/svg" xmlns:xlink="http://www.w3.org/1999/xlink">
    <!-- Generator: Sketch 39.1 (31720) - http://www.bohemiancoding.com/sketch -->
    <title>Fill 6</title>
    <desc>Created with Sketch.</desc>
    <defs></defs>
    <g id="Page-1" stroke="none" stroke-width="1" fill="none" fill-rule="evenodd">
        <g id="Artboard" transform="translate(-435.000000, -144.000000)" fill="#999999">
            <path d="M456.75,145.45 L456.75,166.41 L449.5,163.994 L449.5,162.022 C449.5,161.608 450.734,160.641 450.843,158.5 C451.448,158.098 451.745,157.202 451.745,156.328 C451.745,155.844 451.611,155.413 451.402,155.08 C451.303,154.923 451.171,154.789 451.035,154.681 C451.354,153.936 451.812,152.66 451.47,151.291 C450.967,149.28 448.431,148.567 446.414,148.567 C444.618,148.567 442.409,149.133 441.593,150.678 C440.929,150.634 440.439,150.834 440.115,151.233 C439.373,152.141 439.965,153.63 440.402,154.663 C440.253,154.774 440.121,154.915 440.013,155.085 C439.795,155.422 439.681,155.861 439.681,156.352 C439.681,157.216 440.117,158.102 440.718,158.5 C440.827,160.641 442.25,161.608 442.25,162.022 L442.25,163.994 L436.45,166.41 L436.45,145.45 L456.75,145.45 Z M436.45,171.55 L436.45,167.94 L443.204,165.205 C443.5,165.106 443.7,164.828 443.7,164.517 L443.7,161.617 C443.7,161.332 443.406,161.062 443.148,160.943 C443.138,160.938 442.108,160.463 442.108,157.992 C442.108,157.591 441.845,157.288 441.445,157.288 C441.279,157.175 441.041,156.474 441.19,155.992 C441.244,155.817 441.286,155.817 441.342,155.817 C441.742,155.817 442.064,155.492 442.064,155.092 C442.064,154.859 441.97,154.641 441.785,154.205 C441.175,152.768 441.151,152.294 441.229,152.159 C441.23,152.158 441.381,152.067 441.916,152.177 C442.297,152.253 442.671,152.019 442.764,151.642 C443,150.701 444.533,150.017 446.411,150.017 C448.289,150.017 449.822,150.701 450.058,151.642 C450.32,152.694 449.862,153.725 449.589,154.34 C449.445,154.665 449.358,154.861 449.358,155.092 C449.358,155.492 449.725,155.821 450.126,155.821 C450.157,155.842 450.244,155.995 450.247,156.309 C450.253,156.806 450.053,157.217 450.036,157.267 C449.635,157.267 449.311,157.591 449.311,157.992 C449.311,160.447 448.435,160.933 448.441,160.933 C448.15,161.035 448.05,161.308 448.05,161.617 L448.05,164.517 C448.05,164.828 448.25,165.106 448.546,165.205 L456.75,167.94 L456.75,171.55 L436.45,171.55 Z M458.2,144.725 C458.2,144.325 457.875,144 457.475,144 L435.725,144 C435.325,144 435,144.325 435,144.725 L435,172.275 C435,172.675 435.325,173 435.725,173 L457.475,173 C457.875,173 458.2,172.675 458.2,172.275 L458.2,144.725 Z" id="Fill-6"></path>
        </g>
    </g>
</svg>