<?xml version="1.0" encoding="UTF-8" standalone="no"?>
<svg width="30px" height="23px" viewBox="0 0 30 23" version="1.1" xmlns="http://www.w3.org/2000/svg" xmlns:xlink="http://www.w3.org/1999/xlink">
    <!-- Generator: Sketch 39.1 (31720) - http://www.bohemiancoding.com/sketch -->
    <title>Fill 8</title>
    <desc>Created with Sketch.</desc>
    <defs></defs>
    <g id="Page-1" stroke="none" stroke-width="1" fill="none" fill-rule="evenodd">
        <g id="Artboard" transform="translate(-403.000000, -150.000000)" fill="#999999">
            <path d="M404.332,151.332 L430.98,151.332 L430.98,171.318 L427.999,171.318 L420.321,167.801 L420.321,165.989 C421.653,165.609 421.713,164.72 421.813,162.753 C422.369,162.383 422.771,161.559 422.771,160.757 C422.771,160.312 422.712,159.916 422.52,159.61 C422.429,159.466 422.34,159.342 422.215,159.243 C422.508,158.559 422.945,157.386 422.631,156.128 C422.169,154.281 419.846,153.625 417.993,153.625 C416.342,153.625 414.317,154.145 413.567,155.565 C412.961,155.521 412.509,155.708 412.211,156.075 C411.529,156.909 412.075,158.278 412.476,159.226 C412.339,159.329 412.218,159.458 412.118,159.614 C411.919,159.924 411.814,160.327 411.814,160.779 C411.814,161.572 411.957,162.387 412.509,162.753 C412.609,164.72 413.659,165.609 413.659,165.989 L413.659,167.801 L406.665,171.318 L404.332,171.318 L404.332,151.332 Z M410.881,171.318 L414.707,169.45 C414.979,169.359 414.991,168.568 414.991,168.281 L414.991,165.616 C414.991,165.355 414.98,165.106 414.742,164.997 C414.733,164.993 413.915,164.556 413.915,162.285 C413.915,161.917 413.738,161.639 413.371,161.639 C413.218,161.535 413.032,160.891 413.168,160.448 C413.218,160.287 413.273,160.287 413.324,160.287 C413.692,160.287 413.996,159.989 413.996,159.621 C413.996,159.407 413.913,159.207 413.743,158.806 C413.183,157.485 413.163,157.049 413.235,156.926 C413.235,156.923 413.376,156.843 413.867,156.943 C414.214,157.013 414.56,156.797 414.647,156.451 C414.863,155.586 416.273,154.957 417.998,154.957 C419.723,154.957 421.133,155.586 421.349,156.451 C421.591,157.418 421.17,158.365 420.919,158.93 C420.786,159.229 420.706,159.408 420.706,159.621 C420.706,159.989 421.044,160.291 421.412,160.291 C421.441,160.31 421.521,160.451 421.524,160.74 C421.529,161.196 421.346,161.574 421.329,161.619 C420.961,161.619 420.663,161.917 420.663,162.285 C420.663,164.542 419.601,164.988 419.606,164.988 C419.339,165.082 418.989,165.333 418.989,165.616 L418.989,168.281 C418.989,168.568 419.343,169.359 419.615,169.45 L423.783,171.318 L410.881,171.318 Z M432.313,150.666 C432.313,150.298 432.014,150 431.647,150 L403.666,150 C403.298,150 403,150.298 403,150.666 L403,171.984 C403,172.352 403.298,172.651 403.666,172.651 L431.647,172.651 C432.014,172.651 432.313,172.352 432.313,171.984 L432.313,150.666 Z" id="Fill-8"></path>
        </g>
    </g>
</svg>